HIERARCHY
ROOT Hips
{
	OFFSET -0.001795 -0.223333 0.028219
	CHANNELS 6 Xposition Yposition Zposition Zrotation Yrotation Xrotation 
	JOINT LeftUpLeg
	{
		OFFSET 0.069520 -0.091406 -0.006815
		CHANNELS 3 Zrotation Yrotation Xrotation
		JOINT LeftLeg
		{
			OFFSET 0.034277 -0.375199 -0.004496
			CHANNELS 3 Zrotation Yrotation Xrotation
			JOINT LeftFoot
			{
				OFFSET -0.013596 -0.397961 -0.043693
				CHANNELS 3 Zrotation Yrotation Xrotation
				JOINT LeftToe
				{
					OFFSET 0.026358 -0.055791 0.119288
					CHANNELS 3 Zrotation Yrotation Xrotation
					End Site
					{
						OFFSET 0.000000 0.000000 0.000000
					}
				}
			}
		}
	}
	JOINT RightUpLeg
	{
		OFFSET -0.067670 -0.090522 -0.004320
		CHANNELS 3 Zrotation Yrotation Xrotation
		JOINT RightLeg
		{
			OFFSET -0.038290 -0.382569 -0.008850
			CHANNELS 3 Zrotation Yrotation Xrotation
			JOINT RightFoot
			{
				OFFSET 0.015774 -0.398415 -0.042312
				CHANNELS 3 Zrotation Yrotation Xrotation
				JOINT RightToe
				{
					OFFSET -0.025372 -0.048144 0.123348
					CHANNELS 3 Zrotation Yrotation Xrotation
					End Site
					{
						OFFSET 0.000000 0.000000 0.000000
					}
				}
			}
		}
	}
	JOINT Spine
	{
		OFFSET -0.002533 0.108963 -0.026696
		CHANNELS 3 Zrotation Yrotation Xrotation
		JOINT Spine1
		{
			OFFSET 0.005487 0.135180 0.001092
			CHANNELS 3 Zrotation Yrotation Xrotation
			JOINT Spine2
			{
				OFFSET 0.001457 0.052922 0.025425
				CHANNELS 3 Zrotation Yrotation Xrotation
				JOINT Neck
				{
					OFFSET -0.002778 0.213870 -0.042857
					CHANNELS 3 Zrotation Yrotation Xrotation
					JOINT Head
					{
						OFFSET 0.005152 0.064970 0.051349
						CHANNELS 3 Zrotation Yrotation Xrotation
						End Site
						{
							OFFSET 0.000000 0.000000 0.000000
						}
					}
				}
				JOINT LeftShoulder
				{
					OFFSET 0.078845 0.121749 -0.034090
					CHANNELS 3 Zrotation Yrotation Xrotation
					JOINT LeftArm
					{
						OFFSET 0.090977 0.030469 -0.008868
						CHANNELS 3 Zrotation Yrotation Xrotation
						JOINT LeftForeArm
						{
							OFFSET 0.259612 -0.012772 -0.027456
							CHANNELS 3 Zrotation Yrotation Xrotation
							JOINT LeftHand
							{
								OFFSET 0.249234 0.008986 -0.001171
								CHANNELS 3 Zrotation Yrotation Xrotation
								End Site
								{
									OFFSET 0.000000 0.000000 0.000000
								}
							}
						}
					}
				}
				JOINT RightShoulder
				{
					OFFSET -0.081759 0.118833 -0.038615
					CHANNELS 3 Zrotation Yrotation Xrotation
					JOINT RightArm
					{
						OFFSET -0.096012 0.032551 -0.009143
						CHANNELS 3 Zrotation Yrotation Xrotation
						JOINT RightForeArm
						{
							OFFSET -0.253742 -0.013329 -0.021401
							CHANNELS 3 Zrotation Yrotation Xrotation
							JOINT RightHand
							{
								OFFSET -0.255298 0.007772 -0.005559
								CHANNELS 3 Zrotation Yrotation Xrotation
								End Site
								{
									OFFSET 0.000000 0.000000 0.000000
								}
							}
						}
					}
				}
			}
		}
	}
}
MOTION
Frames: 18
Frame Time: 0.050000
0.000000 0.925498 0.000000 -0.590282 3.659282 -0.989592 8.846242 -0.348741 -11.241246 -9.320139 1.559136 15.238881 10.550342 21.421460 16.860082 0.000000 0.000000 0.000000 2.512462 -0.230100 1.526139 4.269864 -0.509382 6.830571 -3.566562 -8.624884 -1.936380 0.000000 0.000000 0.000000 -0.446301 -0.628610 15.052888 3.262505 -0.108569 -24.314376 1.631526 0.952428 25.552413 -1.559177 3.050695 -28.197202 0.000000 0.000000 0.000000 -30.916726 1.190807 -4.295592 -46.073745 -5.302850 -5.201862 -13.840514 -26.528214 4.443185 0.000000 0.000000 0.000000 20.722074 4.489283 2.252246 48.720395 9.760504 -3.383710 9.892615 26.717900 3.470071 0.000000 0.000000 0.000000 
0.003575 0.927121 0.019310 -0.741351 3.924899 -0.910835 10.255531 -0.278705 -14.009086 -7.810339 0.850781 2.362808 38.354252 23.091136 111.736474 0.000000 0.000000 0.000000 2.472059 -0.466774 3.394299 4.279823 -0.508907 5.576590 -3.412114 -8.472707 -1.028038 0.000000 0.000000 0.000000 -0.549309 -0.670792 16.078582 4.605562 -0.373088 -25.360048 1.411425 1.106884 25.518596 -3.266512 4.049036 -29.996836 0.000000 0.000000 0.000000 -32.048143 3.825504 -6.480800 -45.065484 -4.031367 -5.438335 -16.318027 -24.959672 4.698076 0.000000 0.000000 0.000000 18.497190 5.473970 2.818526 50.335301 10.372844 -3.128061 10.609172 28.970867 4.048115 0.000000 0.000000 0.000000 
0.008552 0.926801 0.040236 -0.673015 2.150329 -1.727804 9.887617 -0.240907 -15.146527 -4.965407 0.477268 -4.423701 43.249515 14.255313 144.897991 0.000000 0.000000 0.000000 1.912310 -0.784599 6.269285 3.919125 -0.424814 4.490608 -2.678721 -6.498388 -1.042299 0.000000 0.000000 0.000000 -0.541996 -0.686836 17.351343 4.309043 -0.269946 -26.512844 1.774303 2.624769 26.578102 -3.910584 4.508909 -29.175150 0.000000 0.000000 0.000000 -32.302354 3.831338 -6.669175 -44.727458 -2.431629 -6.005562 -14.351427 -23.217579 3.931099 0.000000 0.000000 0.000000 18.093083 6.509482 3.480747 49.751117 12.476614 -2.393904 9.565622 28.991851 3.794017 0.000000 0.000000 0.000000 
0.014914 0.924495 0.063232 -1.101000 1.110945 -2.537217 10.420593 -0.113288 -14.680151 -3.996559 0.415840 -8.055942 49.794336 14.785514 141.906468 0.000000 0.000000 0.000000 1.839980 -1.083321 8.883467 3.600926 -0.367543 4.090319 -2.257972 -5.295007 -1.250195 0.000000 0.000000 0.000000 -0.886798 -0.673343 19.025785 5.056806 -0.420302 -27.064232 1.678916 3.865322 26.578565 -3.841800 4.594379 -30.612317 0.000000 0.000000 0.000000 -32.555864 5.490957 -8.166012 -43.995699 -1.374198 -6.155411 -14.876842 -21.683291 3.727574 0.000000 0.000000 0.000000 17.335191 7.142461 3.901815 49.136580 13.755493 -1.880392 10.564641 29.798029 4.203036 0.000000 0.000000 0.000000 
0.022909 0.919980 0.088760 -1.047896 0.213682 -3.355097 10.112271 -0.092095 -14.143515 -4.095331 0.441766 -4.471040 24.136316 27.333690 71.121708 0.000000 0.000000 0.000000 1.123509 -1.331741 11.847702 3.221625 -0.310572 3.455827 -2.009304 -4.275995 -2.055767 0.000000 0.000000 0.000000 -1.494507 -0.579836 20.258592 4.847975 -0.490099 -25.596053 2.403496 4.937260 25.454115 -3.323316 4.407650 -30.659239 0.000000 0.000000 0.000000 -32.315448 5.054966 -8.050472 -43.830634 0.083669 -6.460289 -13.521487 -20.945242 3.304687 0.000000 0.000000 0.000000 17.371826 6.705862 3.725682 48.893414 14.917989 -1.302230 9.055965 32.196814 4.221525 0.000000 0.000000 0.000000 
0.033008 0.912579 0.117076 -1.269144 -0.265009 -3.451525 9.894344 -0.097445 -14.200483 -4.274449 0.471832 -1.017375 3.984567 11.891342 16.719896 0.000000 0.000000 0.000000 0.614929 -1.426695 13.409495 2.933955 -0.254721 4.299713 -2.122307 -3.910866 -3.510564 0.000000 0.000000 0.000000 -2.326330 -0.424367 20.505085 5.258278 -0.584652 -25.777847 2.697920 5.165956 25.689064 -2.183360 3.809369 -30.570062 0.000000 0.000000 0.000000 -31.921223 5.486935 -8.217725 -43.929944 1.292285 -6.923931 -12.036672 -19.695757 2.846589 0.000000 0.000000 0.000000 17.722491 7.383024 4.087794 47.851387 15.903216 -0.958663 8.434854 32.742495 4.090367 0.000000 0.000000 0.000000 
0.045643 0.905927 0.148160 -1.583551 -0.776315 -3.465922 9.686094 -0.106077 -14.771020 -4.664494 0.551983 3.739986 2.842492 8.773188 10.116506 0.000000 0.000000 0.000000 0.302795 -1.416108 13.843582 2.139139 -0.071324 7.192213 -2.251478 -3.932198 -4.154225 0.000000 0.000000 0.000000 -2.711906 -0.336867 20.333813 5.207562 -0.577152 -25.819934 2.773018 5.170972 26.417420 -0.851927 3.050867 -29.919976 0.000000 0.000000 0.000000 -32.584848 5.068109 -7.932637 -43.438793 2.294398 -7.266338 -10.238671 -19.425160 2.519627 0.000000 0.000000 0.000000 18.976343 7.202865 4.043185 46.847332 16.318530 -0.952044 7.966596 33.325288 4.027352 0.000000 0.000000 0.000000 
0.060991 0.902384 0.181528 -1.473290 -1.427879 -3.615183 8.928928 -0.176367 -14.900065 -5.305133 0.725955 8.513565 3.627956 9.309992 6.795598 0.000000 0.000000 0.000000 -1.208714 -1.169418 13.671718 2.654927 -0.066806 11.426934 -2.423724 -5.090044 -2.516008 0.000000 0.000000 0.000000 -3.197949 -0.224868 20.158037 5.080036 -0.591655 -25.358355 2.728161 5.208903 26.528412 -0.398702 2.770067 -30.388945 0.000000 0.000000 0.000000 -32.677940 4.561512 -7.426336 -43.072799 1.942431 -7.145793 -10.214211 -18.960203 2.462202 0.000000 0.000000 0.000000 19.474299 7.324373 4.062981 46.535451 15.946964 -1.126849 8.674815 34.903718 4.473467 0.000000 0.000000 0.000000 
0.078039 0.904726 0.215487 -1.409066 -2.182743 -3.970036 8.464520 -0.195142 -14.334339 -6.656351 1.127927 12.602645 4.530107 10.168314 3.224583 0.000000 0.000000 0.000000 -2.197189 -1.021148 13.859429 1.874753 0.221176 15.078684 -1.910805 -5.692739 2.133917 0.000000 0.000000 0.000000 -4.108651 -0.040890 19.742265 5.117792 -0.693797 -24.277986 3.320226 5.514162 26.100475 -0.143580 2.636078 -30.997264 0.000000 0.000000 0.000000 -32.448030 3.727048 -6.719620 -42.806885 1.273535 -6.865912 -9.418485 -17.742858 2.171797 0.000000 0.000000 0.000000 19.451144 7.341783 4.000345 46.429134 15.541849 -1.209173 7.762660 34.250111 4.073589 0.000000 0.000000 0.000000 
0.095159 0.910335 0.248505 -1.076066 -1.563603 -4.399194 7.322581 -0.299358 -12.048036 -7.661340 1.358042 13.175152 4.523666 9.765751 1.348506 0.000000 0.000000 0.000000 -3.432089 -0.658883 10.580966 3.237091 0.060377 24.518643 -2.939961 -10.386803 10.510161 0.000000 0.000000 0.000000 -4.568065 0.012613 19.983556 4.703396 -0.556506 -24.654785 2.676833 3.431659 27.212757 -0.237070 2.397010 -31.209196 0.000000 0.000000 0.000000 -31.924295 3.510452 -5.610085 -43.348532 -1.406661 -6.451575 -8.091414 -18.372664 2.109028 0.000000 0.000000 0.000000 20.061947 8.195551 4.102508 46.075936 15.205342 -1.385965 8.055640 35.066164 4.184300 0.000000 0.000000 0.000000 
0.110978 0.916617 0.279675 -0.737001 -2.133687 -4.735162 6.174722 -0.292783 -8.775331 -8.272538 1.474722 11.924449 4.769363 10.070577 0.431198 0.000000 0.000000 0.000000 -5.474520 -0.113256 4.070752 6.994907 -1.237722 37.483416 -6.042568 -16.864568 17.491034 0.000000 0.000000 0.000000 -5.659940 0.220756 20.015641 5.455335 -0.814977 -23.881715 2.248172 2.477283 26.643507 -0.178209 2.137638 -30.972663 0.000000 0.000000 0.000000 -31.258746 2.682850 -4.357028 -42.629370 -3.938659 -5.666750 -9.140164 -19.549615 2.456868 0.000000 0.000000 0.000000 19.382209 8.659015 3.936549 47.318385 14.221775 -1.574756 8.081985 35.030919 4.104269 0.000000 0.000000 0.000000 
0.124310 0.920881 0.309250 -0.943968 -1.836158 -5.325436 5.052067 -0.224830 -5.366760 -7.661354 1.274385 10.590715 4.702395 9.642558 -0.891719 0.000000 0.000000 0.000000 -6.197616 0.194614 -2.445630 10.447438 -3.278577 46.443653 -11.391073 -24.414336 26.431173 0.000000 0.000000 0.000000 -5.701897 0.229720 21.594147 5.702614 -0.788142 -25.024279 1.391294 -0.163833 27.108386 -0.354418 1.820165 -31.362665 0.000000 0.000000 0.000000 -31.033328 1.516362 -2.451350 -41.332487 -7.046688 -4.924245 -9.572538 -21.026738 2.790220 0.000000 0.000000 0.000000 18.873629 8.603426 3.250024 48.459482 13.106988 -1.909085 9.772182 34.897897 4.418001 0.000000 0.000000 0.000000 
0.134919 0.923305 0.338503 -1.309093 -1.706569 -5.939878 4.462183 -0.101655 -2.527537 -7.255967 1.173379 10.308844 4.730876 9.369115 -2.286822 0.000000 0.000000 0.000000 -6.000262 0.409864 -7.148089 13.118116 -4.902417 47.719809 -17.135322 -31.325546 27.592817 0.000000 0.000000 0.000000 -4.964193 0.091515 23.270856 6.064999 -0.886876 -24.969624 0.096370 -2.310391 26.173526 -1.553491 2.140990 -32.011281 0.000000 0.000000 0.000000 -30.563070 0.046815 -0.654908 -39.562135 -10.265150 -3.944829 -10.602953 -22.831514 3.260090 0.000000 0.000000 0.000000 18.891745 9.260512 3.020820 49.365555 11.954692 -2.153231 10.313762 34.999214 4.403965 0.000000 0.000000 0.000000 
0.143579 0.925941 0.368204 -1.637428 -2.302649 -6.931932 3.777544 0.121212 1.318257 -6.491332 1.000427 9.156050 4.918694 9.626772 -3.121040 0.000000 0.000000 0.000000 -4.680120 0.668404 -10.328267 14.997943 -5.013778 39.245732 -22.862916 -39.915181 21.334826 0.000000 0.000000 0.000000 -4.463141 0.020349 24.717512 6.303399 -0.923460 -25.468355 -0.146928 -3.577657 25.984025 -1.981022 2.083640 -31.280926 0.000000 0.000000 0.000000 -31.014257 -0.874004 0.612223 -37.836600 -13.817857 -3.029220 -9.254735 -25.656907 3.423274 0.000000 0.000000 0.000000 18.816562 9.359916 2.647704 50.234237 10.376031 -2.725806 11.409797 35.025094 4.610636 0.000000 0.000000 0.000000 
0.150358 0.927500 0.397905 -1.828997 -2.618212 -7.302498 3.089151 0.358142 4.751593 -5.769998 0.826843 7.409858 4.989207 9.692730 -3.700739 0.000000 0.000000 0.000000 -2.594589 1.001278 -12.323946 14.615331 -3.619083 25.353700 -31.104046 -46.626299 28.098378 0.000000 0.000000 0.000000 -4.229904 -0.016521 24.867298 6.949318 -1.131839 -25.012038 -0.851970 -4.723146 25.829819 -3.062675 2.455075 -31.303744 0.000000 0.000000 0.000000 -30.896208 -1.273887 1.394174 -37.256465 -16.810676 -2.287781 -7.080946 -28.652902 3.364080 0.000000 0.000000 0.000000 18.606222 9.315809 2.280155 50.385483 8.888889 -3.243632 12.778729 34.358075 4.789924 0.000000 0.000000 0.000000 
0.155092 0.927834 0.427161 -1.984915 -2.646669 -7.656797 2.743970 0.607217 8.042571 -5.401881 0.730533 5.760466 4.922708 9.448398 -4.181760 0.000000 0.000000 0.000000 -0.638058 1.364486 -13.987042 13.019082 -2.519860 16.850217 -18.006443 -34.273454 18.927153 0.000000 0.000000 0.000000 -3.750242 -0.116866 25.458726 7.046576 -1.117085 -25.471671 -0.786825 -5.835806 25.426717 -3.790203 2.670127 -31.949963 0.000000 0.000000 0.000000 -30.042597 -1.400518 1.920834 -38.126323 -19.128690 -1.714233 -6.047979 -30.653112 3.457295 0.000000 0.000000 0.000000 17.746429 8.502152 1.623589 50.932737 6.797109 -4.076920 14.936673 34.084844 5.263435 0.000000 0.000000 0.000000 
0.158131 0.926718 0.456106 -2.338305 -2.632469 -7.269624 2.168990 0.837378 10.614637 -4.090128 0.496616 3.910028 4.993563 9.472652 -4.823174 0.000000 0.000000 0.000000 1.785297 1.797168 -15.204970 10.286860 -1.711985 13.913337 -9.684177 -22.587077 16.183218 0.000000 0.000000 0.000000 -2.870060 -0.304852 25.253677 7.808654 -1.312676 -25.309816 -1.638322 -6.584191 24.469578 -4.669876 3.030572 -31.291183 0.000000 0.000000 0.000000 -28.898535 -1.553347 2.168659 -38.954955 -20.476982 -1.205428 -5.328497 -32.533554 3.554684 0.000000 0.000000 0.000000 17.316056 8.262258 1.347388 50.972998 4.773937 -4.787161 16.077944 33.138741 5.335894 0.000000 0.000000 0.000000 
0.159750 0.925018 0.484392 -1.985702 -3.023019 -6.865744 1.355155 1.045755 12.110873 -3.679369 0.437711 3.824728 5.166922 9.884983 -5.077686 0.000000 0.000000 0.000000 3.188516 2.001701 -15.392321 7.425470 -1.059054 14.482989 -5.662538 -16.003267 14.100536 0.000000 0.000000 0.000000 -2.177118 -0.420651 25.604132 7.811299 -1.229283 -26.143519 -2.195697 -6.207591 24.141205 -4.564859 3.015776 -32.059007 0.000000 0.000000 0.000000 -28.475073 -2.717052 2.832911 -39.432862 -21.292699 -0.866556 -5.300772 -33.513171 3.656181 0.000000 0.000000 0.000000 17.320480 8.003303 1.267760 51.238051 3.652306 -5.277348 15.428488 33.036743 5.160872 0.000000 0.000000 0.000000 
